HIERARCHY
ROOT Hips
{
    OFFSET 0.000000 0.000000 0.000000
    CHANNELS 6 Xposition Yposition Zposition Zrotation Xrotation Yrotation
    JOINT Spine
    {
        OFFSET -0.000000 7.925200 0.000000
        CHANNELS 3 Zrotation Xrotation Yrotation
        JOINT Spine1
        {
            OFFSET -0.000000 23.364719 0.000000
            CHANNELS 3 Zrotation Xrotation Yrotation
            JOINT Neck
            {
                OFFSET -0.000000 23.268766 2.115342
                CHANNELS 3 Zrotation Xrotation Yrotation
                JOINT Head
                {
                    OFFSET -0.000000 13.530829 -1.932976
                    CHANNELS 3 Zrotation Xrotation Yrotation
                    End Site
                    {
                        OFFSET -0.000000 24.162195 0.000000
                    }
                }
            }
            JOINT LeftShoulder
            {
                OFFSET 3.858291 22.792089 -0.033814
                CHANNELS 3 Zrotation Xrotation Yrotation
                JOINT LeftArm
                {
                    OFFSET 7.057024 0.000000 0.000000
                    CHANNELS 3 Zrotation Xrotation Yrotation
                    JOINT LeftForeArm
                    {
                        OFFSET 34.734173 0.000000 0.000000
                        CHANNELS 3 Zrotation Xrotation Yrotation
                        JOINT LeftHand
                        {
                            OFFSET 23.943203 0.000000 0.000000
                            CHANNELS 3 Zrotation Xrotation Yrotation
                            End Site
                            {
                                OFFSET 14.497317 0.000000 0.000000
                            }
                        }
                    }
                }
            }
            JOINT RightShoulder
            {
                OFFSET -3.868823 22.792089 -0.033814
                CHANNELS 3 Zrotation Xrotation Yrotation
                JOINT RightArm
                {
                    OFFSET -7.057024 0.000000 0.000000
                    CHANNELS 3 Zrotation Xrotation Yrotation
                    JOINT RightForeArm
                    {
                        OFFSET -34.734173 0.000000 0.000000
                        CHANNELS 3 Zrotation Xrotation Yrotation
                        JOINT RightHand
                        {
                            OFFSET -23.943203 0.000000 0.000000
                            CHANNELS 3 Zrotation Xrotation Yrotation
                            End Site
                            {
                                OFFSET -14.497317 0.000000 0.000000
                            }
                        }
                    }
                }
            }
        }
    }
    JOINT LeftUpLeg
    {
        OFFSET 9.664878 0.000000 0.000000
        CHANNELS 3 Zrotation Xrotation Yrotation
        JOINT LeftLeg
        {
            OFFSET -0.000000 -38.728706 0.000000
            CHANNELS 3 Zrotation Xrotation Yrotation
            JOINT LeftFoot
            {
                OFFSET -0.000000 -40.242161 0.000000
                CHANNELS 3 Zrotation Xrotation Yrotation
                JOINT LeftToeBase
                {
                    OFFSET -0.000000 -6.282171 14.497317
                    CHANNELS 3 Zrotation Xrotation Yrotation
                    End Site
                    {
                        OFFSET -0.000000 0.000000 3.865951
                    }
                }
            }
        }
    }
    JOINT RightUpLeg
    {
        OFFSET -9.664878 0.000000 0.000000
        CHANNELS 3 Zrotation Xrotation Yrotation
        JOINT RightLeg
        {
            OFFSET -0.000000 -38.728706 0.000000
            CHANNELS 3 Zrotation Xrotation Yrotation
            JOINT RightFoot
            {
                OFFSET -0.000000 -40.242161 0.000000
                CHANNELS 3 Zrotation Xrotation Yrotation
                JOINT RightToeBase
                {
                    OFFSET -0.000000 -6.282171 14.497317
                    CHANNELS 3 Zrotation Xrotation Yrotation
                    End Site
                    {
                        OFFSET -0.000000 0.000000 3.865951
                    }
                }
            }
        }
    }
}
MOTION
Frames:    7
Frame Time:    0.008333
-220.578247    89.568886    33.883812    -1.784202    -1.206876    86.046738    1.420662    -1.115081    -0.380215    -0.290013    -3.382160    -0.402699    -3.758566    13.292404    2.982619    1.613511    2.838035    3.400415    14.901270    -1.690818    3.459625    -9.359368    5.732645    -9.653431    4.097852    -5.088742    -1.211068    -0.985774    -4.991031    -6.358812    -12.473896    -0.014249    5.657279    12.161404    5.863121    9.482166    -1.856814    -2.471966    0.358347    4.625896    -2.350250    2.871616    3.582763    2.414079    4.854645    -2.080464    0.428766    2.510087    -1.103184    -4.655052    10.190662    0.000000    0.000000    0.000000    1.818251    -1.189269    0.071758    -1.546658    4.936015    0.257171    0.057667    -4.308249    -14.161274    0.000000    0.000000    0.000000    
-220.599991    89.597420    33.837997    -1.782182    -1.065377    86.183899    1.334114    -1.074953    -0.446231    -0.344577    -3.426616    -0.469173    -3.749475    13.223961    2.985190    1.602919    2.944491    3.402541    14.937901    -1.709347    3.449420    -9.402491    5.724467    -9.634839    4.075331    -5.079946    -1.225220    -0.968244    -4.983116    -6.339461    -12.482146    -0.034889    5.648495    12.167075    5.849288    9.480423    -1.847494    -2.464671    0.360342    4.626379    -2.343054    2.869229    3.369265    2.335733    4.633552    -1.991896    0.471170    2.596940    -1.149785    -4.512376    10.200780    0.000000    0.000000    0.000000    1.599418    -1.215123    -0.027876    -1.455307    4.963728    0.219213    0.138709    -4.321896    -14.192629    0.000000    0.000000    0.000000    
-220.577576    89.571205    33.882607    -1.780441    -1.210760    86.061707    1.430688    -1.113400    -0.389342    -0.285626    -3.380007    -0.411723    -3.804432    13.609351    2.894444    1.680850    2.362874    3.313433    14.933981    -1.693325    3.428533    -9.408837    5.728152    -9.597483    4.076078    -5.085331    -1.236734    -0.973507    -4.987751    -6.344766    -12.490914    -0.041443    5.655676    12.186285    5.825607    9.479864    -1.851944    -2.467146    0.359712    4.620791    -2.345751    2.866950    3.586169    2.411533    4.826175    -2.075303    0.440439    2.493717    -1.128538    -4.666500    10.217471    0.000000    0.000000    0.000000    1.825522    -1.163988    0.103961    -1.550979    4.902380    0.188606    0.130058    -4.292250    -14.157068    0.000000    0.000000    0.000000    
-220.601791    89.597359    33.837135    -1.787310    -1.062504    86.202278    1.331143    -1.082885    -0.455356    -0.334716    -3.418121    -0.478010    -3.818198    13.638088    2.891599    1.710407    2.304433    3.314262    14.912771    -1.689990    3.451764    -9.376683    5.722923    -9.628228    4.053569    -5.103640    -1.239651    -0.989063    -5.005388    -6.338481    -12.496943    -0.047355    5.644637    12.185901    5.811513    9.477589    -1.844499    -2.473537    0.362049    4.628340    -2.351393    2.880280    3.372410    2.322048    4.622976    -2.001488    0.480038    2.590199    -1.169559    -4.523835    10.203612    0.000000    0.000000    0.000000    1.598781    -1.211159    -0.013579    -1.462751    4.968038    0.396987    0.118864    -4.328600    -14.397385    0.000000    0.000000    0.000000    
-220.601990    89.599571    33.835754    -1.784907    -1.069344    86.198341    1.356931    -1.071821    -0.463533    -0.353624    -3.435920    -0.486910    -3.818799    13.655217    2.896677    1.704880    2.305270    3.318242    14.947184    -1.742885    3.510400    -9.415139    5.763741    -9.662267    4.052248    -5.097346    -1.228677    -1.016973    -4.998079    -6.324810    -12.499357    -0.042928    5.679611    12.199668    5.806682    9.462775    -1.851885    -2.480761    0.372431    4.639859    -2.358490    2.872158    3.378676    2.324908    4.639019    -2.003301    0.477546    2.605481    -1.196549    -4.523988    10.178122    0.000000    0.000000    0.000000    1.600005    -1.209300    -0.009332    -1.452563    4.952460    0.249052    0.073189    -4.306721    -14.232953    0.000000    0.000000    0.000000    
-220.597839    89.599510    33.836178    -1.778299    -1.068485    86.202797    1.346482    -1.074721    -0.462982    -0.330996    -3.427549    -0.485617    -3.826703    13.634419    2.902308    1.703123    2.349284    3.324197    14.936070    -1.713771    3.465387    -9.428945    5.747539    -9.613673    4.060380    -5.106581    -1.239096    -1.032542    -5.005880    -6.337920    -12.502755    0.007195    5.741295    12.187340    5.750395    9.400573    -1.838391    -2.482138    0.372471    4.642705    -2.360190    2.862774    3.376477    2.336469    4.594594    -2.001082    0.477268    2.628985    -1.197997    -4.528305    10.202242    0.000000    0.000000    0.000000    1.618143    -1.174721    -0.064514    -1.496936    4.917145    0.415038    0.094618    -4.307533    -14.352291    0.000000    0.000000    0.000000    
-220.577484    89.571312    33.877369    -1.779438    -1.209933    86.065758    1.444952    -1.099764    -0.397426    -0.278763    -3.412186    -0.419741    -3.817197    13.702332    2.909136    1.683656    2.285983    3.327182    14.938284    -1.727918    3.488222    -9.434253    5.774621    -9.638506    4.050017    -5.111958    -1.222084    -1.033424    -5.011874    -6.343715    -12.517859    0.034205    5.799311    12.220016    5.738840    9.344327    -1.859035    -2.480675    0.387948    4.692612    -2.357322    2.859664    3.584440    2.413516    4.795124    -2.085578    0.436094    2.538069    -1.209098    -4.707733    10.237784    0.000000    0.000000    0.000000    1.811941    -1.161748    0.138294    -1.532890    4.922447    0.325653    0.125469    -4.323661    -14.333800    0.000000    0.000000    0.000000    
